<svg xmlns="http://www.w3.org/2000/svg" xmlns:xlink="http://www.w3.org/1999/xlink" width="19.168" height="18.824" viewBox="0 0 19.168 18.824">
  <defs>
    <clipPath id="clip-path">
      <rect id="Rectangle_3463" data-name="Rectangle 3463" width="19.168" height="18.824" fill="none"/>
    </clipPath>
    <clipPath id="clip-path-2">
      <path id="Path_575" data-name="Path 575" d="M44.047,24.426,44.022,33.3l6.908-4.014.025-8.877Z" transform="translate(-44.022 -20.412)" fill="none"/>
    </clipPath>
    <linearGradient id="linear-gradient" x1="-1.383" y1="1.115" x2="-1.352" y2="1.115" gradientUnits="objectBoundingBox">
      <stop offset="0" stop-color="#93a2d4"/>
      <stop offset="1" stop-color="#b8bedf"/>
    </linearGradient>
    <clipPath id="clip-path-3">
      <path id="Path_576" data-name="Path 576" d="M9.266,29.285,16.219,33.3l.025-8.877L9.291,20.408Z" transform="translate(-9.266 -20.408)" fill="none"/>
    </clipPath>
    <linearGradient id="linear-gradient-2" x1="-0.289" y1="1.115" x2="-0.258" y2="1.115" xlink:href="#linear-gradient"/>
    <clipPath id="clip-path-4">
      <path id="Path_577" data-name="Path 577" d="M41.189,47.717a.681.681,0,0,0,.617,0l.025-8.877a.682.682,0,0,1-.617,0Z" transform="translate(-41.189 -38.84)" fill="none"/>
    </clipPath>
    <linearGradient id="linear-gradient-3" x1="-13.972" y1="1.154" x2="-13.633" y2="1.154" gradientUnits="objectBoundingBox">
      <stop offset="0" stop-color="#b8bedf"/>
      <stop offset="0.341" stop-color="#b4bbdd"/>
      <stop offset="0.652" stop-color="#a9b2da"/>
      <stop offset="0.951" stop-color="#96a4d5"/>
      <stop offset="1" stop-color="#93a2d4"/>
    </linearGradient>
    <clipPath id="clip-path-5">
      <path id="Path_578" data-name="Path 578" d="M15.829.074,8.921,4.088a.189.189,0,0,0,0,.356l6.953,4.014a.682.682,0,0,0,.617,0L23.4,4.446a.189.189,0,0,0,0-.358L16.445.073a.681.681,0,0,0-.617,0" transform="translate(-8.795)" fill="none"/>
    </clipPath>
    <linearGradient id="linear-gradient-4" x1="-0.126" y1="2.2" x2="-0.112" y2="2.2" xlink:href="#linear-gradient"/>
    <clipPath id="clip-path-7">
      <path id="Path_583" data-name="Path 583" d="M54.384,32.7l-3.09,1.784a1.02,1.02,0,0,0-.463.8c0,.294.21.412.466.264l3.09-1.784a1.016,1.016,0,0,0,.462-.8c0-.208-.1-.328-.257-.328a.421.421,0,0,0-.208.063" transform="translate(-50.831 -32.638)" fill="none"/>
    </clipPath>
    <linearGradient id="linear-gradient-5" x1="-2.754" y1="3.829" x2="-2.7" y2="3.829" gradientUnits="objectBoundingBox">
      <stop offset="0" stop-color="#535899"/>
      <stop offset="1" stop-color="#6267a0"/>
    </linearGradient>
    <clipPath id="clip-path-9">
      <path id="Path_588" data-name="Path 588" d="M55.469,63.188a.094.094,0,0,0,0,.178l.619.357-.461.268-.309-.178a.341.341,0,0,0-.309,0c-.084.049-.084.129,0,.179l.309.178-.46.267-.309-.178a.341.341,0,0,0-.309,0,.1.1,0,0,0,0,.18l.309.178-.46.267-.309-.178a.34.34,0,0,0-.309,0c-.084.049-.084.129,0,.179l.309.178-.46.267-.619-.357a.34.34,0,0,0-.309,0,.094.094,0,0,0,0,.178l.619.357-.46.267-.309-.178a.341.341,0,0,0-.309,0c-.084.049-.084.129,0,.179l.309.178-.461.268-.309-.178a.337.337,0,0,0-.309,0c-.084.049-.084.129,0,.179l.309.178-.46.267-.309-.178a.341.341,0,0,0-.309,0c-.086.05-.084.129,0,.179l.309.178-.461.268-.619-.357a.338.338,0,0,0-.308,0,.094.094,0,0,0,0,.178l.619.357-.46.267-.309-.178a.341.341,0,0,0-.309,0c-.086.05-.084.129,0,.179l.309.178-.461.268a.094.094,0,0,0,0,.178.342.342,0,0,0,.308,0l8.136-4.728a.109.109,0,0,0,.063-.088v0a.11.11,0,0,0-.064-.088.34.34,0,0,0-.308,0l-.46.267-.619-.357a.34.34,0,0,0-.308,0" transform="translate(-48.657 -63.151)" fill="none"/>
    </clipPath>
    <linearGradient id="linear-gradient-6" x1="-0.99" y1="0.79" x2="-0.968" y2="0.79" gradientUnits="objectBoundingBox">
      <stop offset="0" stop-color="#fc9404"/>
      <stop offset="1" stop-color="#ffbe09"/>
    </linearGradient>
    <clipPath id="clip-path-10">
      <path id="Path_589" data-name="Path 589" d="M.032,5.56,0,16.922a.341.341,0,0,0,.154.267c.086.05.155.009.155-.088l0-.532.619.357c.085.049.155.009.155-.09a.34.34,0,0,0-.154-.266l-.619-.357,0-.532.31.179c.085.049.155.009.155-.088A.34.34,0,0,0,.624,15.5l-.31-.179v-.534l.31.179c.085.049.155.011.155-.088a.34.34,0,0,0-.154-.266l-.31-.179,0-.532.31.179c.085.049.155.009.155-.088a.338.338,0,0,0-.154-.266l-.31-.179,0-.533.619.357c.085.049.154.011.155-.088a.341.341,0,0,0-.154-.266l-.619-.357,0-.532.31.179c.085.049.154.009.155-.088a.338.338,0,0,0-.154-.267l-.31-.179,0-.534.31.179c.085.049.154.009.155-.088a.341.341,0,0,0-.154-.266l-.31-.179v-.532l.31.179c.085.049.155.009.155-.088a.341.341,0,0,0-.154-.268L.329,10V9.466l.619.357c.085.049.155.009.155-.088A.34.34,0,0,0,.95,9.468L.331,9.111l0-.532.31.179c.085.049.155.009.155-.09A.34.34,0,0,0,.644,8.4l-.31-.179,0-.532.31.179C.73,7.918.8,7.879.8,7.781a.341.341,0,0,0-.154-.267l-.31-.179,0-.711.619.357c.085.049.155.011.155-.088a.341.341,0,0,0-.154-.267L.34,6.27V5.738a.335.335,0,0,0-.154-.266.14.14,0,0,0-.07-.021c-.05,0-.085.039-.085.11" transform="translate(0 -5.45)" fill="none"/>
    </clipPath>
    <linearGradient id="linear-gradient-7" x1="0" y1="1.496" x2="0.196" y2="1.496" xlink:href="#linear-gradient-6"/>
    <clipPath id="clip-path-11">
      <path id="Path_590" data-name="Path 590" d="M30.476,28.073l-.614.357a1.581,1.581,0,0,1,1.594.156l.614-.357a2.042,2.042,0,0,0-1.006-.308,1.157,1.157,0,0,0-.588.151" transform="translate(-29.862 -27.922)" fill="none"/>
    </clipPath>
    <linearGradient id="linear-gradient-8" x1="-4.03" y1="6.033" x2="-3.9" y2="6.033" xlink:href="#linear-gradient-6"/>
    <clipPath id="clip-path-12">
      <path id="Path_591" data-name="Path 591" d="M29.1,34.484a3.906,3.906,0,0,1-1.771-3.068c0-1.128.8-1.583,1.783-1.016a3.9,3.9,0,0,1,1.772,3.068c0,.8-.4,1.26-.986,1.26a1.618,1.618,0,0,1-.8-.243m-2.234-3.336a4.92,4.92,0,0,0,2.233,3.868c1.238.715,2.244.141,2.248-1.281a4.92,4.92,0,0,0-2.233-3.868A2.043,2.043,0,0,0,28.1,29.56c-.734,0-1.239.581-1.242,1.588" transform="translate(-26.862 -29.56)" fill="none"/>
    </clipPath>
    <linearGradient id="linear-gradient-9" x1="-0.66" y1="1.724" x2="-0.629" y2="1.724" xlink:href="#linear-gradient-6"/>
    <clipPath id="clip-path-14">
      <path id="Path_594" data-name="Path 594" d="M37.182,29.691a4.92,4.92,0,0,1,2.233,3.868A1.568,1.568,0,0,1,38.761,35l.614-.357a1.569,1.569,0,0,0,.653-1.437A4.92,4.92,0,0,0,37.8,29.334Z" transform="translate(-37.182 -29.334)" fill="none"/>
    </clipPath>
    <linearGradient id="linear-gradient-10" x1="-2.841" y1="2.196" x2="-2.764" y2="2.196" gradientUnits="objectBoundingBox">
      <stop offset="0" stop-color="#ffbe09"/>
      <stop offset="1" stop-color="#fc9404"/>
    </linearGradient>
  </defs>
  <g id="Group_13515" data-name="Group 13515" transform="translate(0 0)">
    <g id="Group_10011" data-name="Group 10011" transform="translate(0 0)">
      <g id="Group_10010" data-name="Group 10010" transform="translate(0 0)" clip-path="url(#clip-path)">
        <path id="Path_573" data-name="Path 573" d="M75.889,19.6l-.025,8.877a.216.216,0,0,1-.127.178l.025-8.877a.217.217,0,0,0,.127-.178" transform="translate(-59.242 -15.328)" fill="#b8bedf"/>
        <path id="Path_574" data-name="Path 574" d="M8.833,19.763,8.808,28.64a.217.217,0,0,1-.128-.179l.025-8.877a.217.217,0,0,0,.128.179" transform="translate(-6.79 -15.319)" fill="#93a2d4"/>
      </g>
    </g>
    <g id="Group_10013" data-name="Group 10013" transform="translate(9.588 4.445)">
      <g id="Group_10012" data-name="Group 10012" clip-path="url(#clip-path-2)">
        <rect id="Rectangle_3464" data-name="Rectangle 3464" width="6.933" height="12.891" transform="translate(0 0)" fill="url(#linear-gradient)"/>
      </g>
    </g>
    <g id="Group_10015" data-name="Group 10015" transform="translate(2.018 4.444)">
      <g id="Group_10014" data-name="Group 10014" clip-path="url(#clip-path-3)">
        <rect id="Rectangle_3465" data-name="Rectangle 3465" width="6.978" height="12.891" transform="translate(0)" fill="url(#linear-gradient-2)"/>
      </g>
    </g>
    <g id="Group_10017" data-name="Group 10017" transform="translate(8.971 8.459)">
      <g id="Group_10016" data-name="Group 10016" clip-path="url(#clip-path-4)">
        <rect id="Rectangle_3466" data-name="Rectangle 3466" width="0.642" height="8.976" transform="translate(0 0)" fill="url(#linear-gradient-3)"/>
      </g>
    </g>
    <g id="Group_10019" data-name="Group 10019" transform="translate(1.916 0)">
      <g id="Group_10018" data-name="Group 10018" clip-path="url(#clip-path-5)">
        <rect id="Rectangle_3467" data-name="Rectangle 3467" width="14.818" height="8.558" transform="translate(-0.043 0)" fill="url(#linear-gradient-4)"/>
      </g>
    </g>
    <g id="Group_10021" data-name="Group 10021" transform="translate(0 0)">
      <g id="Group_10020" data-name="Group 10020" transform="translate(0 0)" clip-path="url(#clip-path)">
        <path id="Path_579" data-name="Path 579" d="M29.133,7.337,26.66,5.91l-7.5,4.36L21.63,11.7Z" transform="translate(-14.985 -4.623)" fill="#fffefb"/>
        <path id="Path_580" data-name="Path 580" d="M21.619,27.356l-2.471-1.427-.007,2.486a.679.679,0,0,0,.308.533l1.854,1.07c.171.1.309.019.31-.176Z" transform="translate(-14.972 -20.282)" fill="#fffefb"/>
        <path id="Path_581" data-name="Path 581" d="M15.135,55.7l-2.162-1.248c-.171-.1-.311-.019-.311.176v.355a.682.682,0,0,0,.309.535l2.162,1.248c.171.1.309.019.31-.178v-.355a.679.679,0,0,0-.308-.533" transform="translate(-9.903 -42.56)" fill="#fffefb"/>
        <path id="Path_582" data-name="Path 582" d="M15.153,50.808,12.99,49.56c-.171-.1-.311-.019-.311.177a.682.682,0,0,0,.309.534l2.162,1.248c.171.1.309.018.31-.177a.68.68,0,0,0-.308-.534" transform="translate(-9.918 -38.733)" fill="#fffefb"/>
      </g>
    </g>
    <g id="Group_10023" data-name="Group 10023" transform="translate(11.071 7.108)">
      <g id="Group_10022" data-name="Group 10022" clip-path="url(#clip-path-7)">
        <rect id="Rectangle_3469" data-name="Rectangle 3469" width="4.019" height="3.059" transform="translate(-0.001 0)" fill="url(#linear-gradient-5)"/>
      </g>
    </g>
    <g id="Group_10025" data-name="Group 10025" transform="translate(0 0)">
      <g id="Group_10024" data-name="Group 10024" transform="translate(0 0)" clip-path="url(#clip-path)">
        <path id="Path_584" data-name="Path 584" d="M57.637,58.683c-.128.074-.233.014-.233-.133l0-.888a.511.511,0,0,1,.231-.4l.773-.446c.127-.073.231-.013.232.132l0,.888a.511.511,0,0,1-.23.4Zm.769-2.044-.773.446a.848.848,0,0,0-.385.666l0,.889c0,.244.175.344.388.221l.773-.446a.849.849,0,0,0,.384-.667l0-.888c0-.244-.174-.343-.386-.22" transform="translate(-44.779 -44.262)" fill="#fffefb"/>
        <path id="Path_585" data-name="Path 585" d="M60.063,60.3l-.2.473.1-.059v.355l.206-.119v-.355l.1-.059Z" transform="translate(-46.821 -47.164)" fill="#fffefb"/>
        <path id="Path_586" data-name="Path 586" d="M66.153,53.769c-.128.074-.231.014-.232-.134l0-.888a.508.508,0,0,1,.23-.4l.773-.446c.128-.074.233-.014.233.131l0,.888a.512.512,0,0,1-.232.4Zm.769-2.044-.773.446a.846.846,0,0,0-.384.665l0,.888c0,.244.174.345.386.222l.773-.446a.852.852,0,0,0,.385-.667l0-.889c0-.244-.175-.342-.388-.219" transform="translate(-51.441 -40.418)" fill="#fffefb"/>
        <path id="Path_587" data-name="Path 587" d="M68.776,54.837l-.412.238v.237c0,.11.066.165.155.139v.126l-.154.089v.118l.154-.089.1-.059.154-.089v-.118l-.154.089v-.126a.454.454,0,0,0,.154-.318Z" transform="translate(-53.475 -42.894)" fill="#fffefb"/>
      </g>
    </g>
    <g id="Group_10027" data-name="Group 10027" transform="translate(10.597 13.754)">
      <g id="Group_10026" data-name="Group 10026" clip-path="url(#clip-path-9)">
        <rect id="Rectangle_3471" data-name="Rectangle 3471" width="9.981" height="8.697" transform="translate(-2.222 1.27) rotate(-30)" fill="url(#linear-gradient-6)"/>
      </g>
    </g>
    <g id="Group_10029" data-name="Group 10029" transform="translate(0 1.187)">
      <g id="Group_10028" data-name="Group 10028" clip-path="url(#clip-path-10)">
        <rect id="Rectangle_3472" data-name="Rectangle 3472" width="1.113" height="11.788" transform="translate(0 0)" fill="url(#linear-gradient-7)"/>
      </g>
    </g>
    <g id="Group_10031" data-name="Group 10031" transform="translate(6.504 6.081)">
      <g id="Group_10030" data-name="Group 10030" clip-path="url(#clip-path-11)">
        <rect id="Rectangle_3473" data-name="Rectangle 3473" width="1.679" height="2.245" transform="translate(-0.288 0.498) rotate(-60)" fill="url(#linear-gradient-8)"/>
      </g>
    </g>
    <g id="Group_10033" data-name="Group 10033" transform="translate(5.85 6.438)">
      <g id="Group_10032" data-name="Group 10032" clip-path="url(#clip-path-12)">
        <rect id="Rectangle_3474" data-name="Rectangle 3474" width="6.972" height="7.588" transform="translate(-2.676 1.543) rotate(-30)" fill="url(#linear-gradient-9)"/>
      </g>
    </g>
    <g id="Group_10035" data-name="Group 10035" transform="translate(0 0)">
      <g id="Group_10034" data-name="Group 10034" transform="translate(0 0)" clip-path="url(#clip-path)">
        <path id="Path_592" data-name="Path 592" d="M30.772,32.539c-.982-.567-1.78-.112-1.783,1.016a3.9,3.9,0,0,0,1.771,3.068c.982.567,1.78.11,1.783-1.016a3.9,3.9,0,0,0-1.771-3.068" transform="translate(-22.675 -25.262)" fill="#fffefb"/>
        <path id="Path_593" data-name="Path 593" d="M33.316,39.235a.506.506,0,0,1,.2.249c.064.165.024.305-.086.315a1.5,1.5,0,0,0-.825.293,1.367,1.367,0,0,0-.462.756.125.125,0,0,1-.165.1.261.261,0,0,1-.059-.025.483.483,0,0,1-.166-.173l-.923-1.6c-.09-.156-.09-.324,0-.377a.165.165,0,0,1,.164.017.476.476,0,0,1,.164.173l.66,1.145a1.5,1.5,0,0,1,.43-.557A1.768,1.768,0,0,1,33.2,39.2a.2.2,0,0,1,.115.031" transform="translate(-24.064 -30.313)" fill="#525472"/>
      </g>
    </g>
    <g id="Group_10037" data-name="Group 10037" transform="translate(8.098 6.389)">
      <g id="Group_10036" data-name="Group 10036" clip-path="url(#clip-path-14)">
        <rect id="Rectangle_3476" data-name="Rectangle 3476" width="2.851" height="5.661" transform="translate(0 0)" fill="url(#linear-gradient-10)"/>
      </g>
    </g>
  </g>
</svg>
