<svg id="Group_13516" data-name="Group 13516" xmlns="http://www.w3.org/2000/svg" xmlns:xlink="http://www.w3.org/1999/xlink" width="19.721" height="18.576" viewBox="0 0 19.721 18.576">
  <defs>
    <clipPath id="clip-path">
      <path id="Path_786" data-name="Path 786" d="M62.42,28.25,67.846,31.4a.114.114,0,0,1,.115-.012l-5.425-3.153a.083.083,0,0,0-.043-.011.148.148,0,0,0-.073.022" transform="translate(-62.42 -28.228)" fill="none"/>
    </clipPath>
    <linearGradient id="linear-gradient" x1="-2.551" y1="3.837" x2="-2.51" y2="3.837" gradientUnits="objectBoundingBox">
      <stop offset="0" stop-color="#3f405f"/>
      <stop offset="1" stop-color="#616380"/>
    </linearGradient>
    <clipPath id="clip-path-2">
      <rect id="Rectangle_3619" data-name="Rectangle 3619" width="19.721" height="18.576" fill="none"/>
    </clipPath>
    <clipPath id="clip-path-3">
      <path id="Path_788" data-name="Path 788" d="M54.331,29.384l5.425,3.153,1.832-1.058-5.426-3.153Z" transform="translate(-54.331 -28.327)" fill="none"/>
    </clipPath>
    <linearGradient id="linear-gradient-2" x1="-1.695" y1="2.889" x2="-1.664" y2="2.889" xlink:href="#linear-gradient"/>
    <clipPath id="clip-path-5">
      <path id="Path_790" data-name="Path 790" d="M80.126,42.176l-1.832,1.058a.708.708,0,0,1,.364.53l1.47-.848a.355.355,0,0,0,.161-.278v-.369c0-.073-.037-.115-.089-.115a.148.148,0,0,0-.073.022" transform="translate(-78.294 -42.154)" fill="none"/>
    </clipPath>
    <linearGradient id="linear-gradient-3" x1="-6.845" y1="3.728" x2="-6.756" y2="3.728" xlink:href="#linear-gradient"/>
    <clipPath id="clip-path-7">
      <path id="Path_793" data-name="Path 793" d="M16.735,41.139l5.425,3.153,6.876-3.97-5.425-3.153Z" transform="translate(-16.735 -37.169)" fill="none"/>
    </clipPath>
    <linearGradient id="linear-gradient-4" x1="-0.308" y1="1.426" x2="-0.29" y2="1.426" xlink:href="#linear-gradient"/>
    <clipPath id="clip-path-8">
      <path id="Path_794" data-name="Path 794" d="M40.7,55.066a.708.708,0,0,1,.365.53l6.151-3.552a2.67,2.67,0,0,1,.36-.948Z" transform="translate(-40.697 -51.096)" fill="none"/>
    </clipPath>
    <linearGradient id="linear-gradient-5" x1="-1.073" y1="1.092" x2="-1.045" y2="1.092" xlink:href="#linear-gradient"/>
    <clipPath id="clip-path-10">
      <path id="Path_797" data-name="Path 797" d="M.052,66.92l5.425,3.153a.112.112,0,0,1-.047-.1L0,66.817a.112.112,0,0,0,.047.1" transform="translate(-0.005 -66.817)" fill="none"/>
    </clipPath>
    <linearGradient id="linear-gradient-6" x1="0" y1="1.059" x2="0.041" y2="1.059" xlink:href="#linear-gradient"/>
    <clipPath id="clip-path-11">
      <path id="Path_798" data-name="Path 798" d="M0,65.557,5.427,68.71v-.369L0,65.188Z" transform="translate(0 -65.188)" fill="none"/>
    </clipPath>
    <linearGradient id="linear-gradient-7" x1="0" y1="1.084" x2="0.042" y2="1.084" xlink:href="#linear-gradient"/>
    <clipPath id="clip-path-12">
      <path id="Path_799" data-name="Path 799" d="M.706,60.027,6.131,63.18l1.992-1.15L2.7,58.877Z" transform="translate(-0.706 -58.877)" fill="none"/>
    </clipPath>
    <linearGradient id="linear-gradient-8" x1="-0.022" y1="1.219" x2="0.009" y2="1.219" xlink:href="#linear-gradient"/>
    <clipPath id="clip-path-13">
      <path id="Path_800" data-name="Path 800" d="M24.123,73.954a.352.352,0,0,0-.16.278V74.6c0,.1.071.144.161.092l1.63-.941a2.67,2.67,0,0,1,.36-.948Z" transform="translate(-23.963 -72.804)" fill="none"/>
    </clipPath>
    <linearGradient id="linear-gradient-9" x1="-1.746" y1="0.887" x2="-1.668" y2="0.887" xlink:href="#linear-gradient"/>
    <clipPath id="clip-path-14">
      <path id="Path_801" data-name="Path 801" d="M0,64.236l5.425,3.153a.352.352,0,0,1,.16-.278L.16,63.958a.352.352,0,0,0-.16.278" transform="translate(0 -63.958)" fill="none"/>
    </clipPath>
    <linearGradient id="linear-gradient-10" x1="0" y1="1.194" x2="0.041" y2="1.194" xlink:href="#linear-gradient"/>
    <clipPath id="clip-path-16">
      <path id="Path_804" data-name="Path 804" d="M48.011,22.361l-.017,5.906,8.3-4.822.017-5.906Z" transform="translate(-47.994 -17.539)" fill="none"/>
    </clipPath>
    <linearGradient id="linear-gradient-11" x1="-1.307" y1="1.361" x2="-1.28" y2="1.361" gradientUnits="objectBoundingBox">
      <stop offset="0" stop-color="#fc9404"/>
      <stop offset="1" stop-color="#ffbe09"/>
    </linearGradient>
    <clipPath id="clip-path-18">
      <path id="Path_807" data-name="Path 807" d="M26.43,0a.644.644,0,0,0-.307.077L17.825,4.9a.2.2,0,0,0,0,.371l6.1,3.524a.705.705,0,0,0,.641,0l8.3-4.822a.2.2,0,0,0,0-.371L26.763.077A.647.647,0,0,0,26.455,0Z" transform="translate(-17.692)" fill="none"/>
    </clipPath>
    <linearGradient id="linear-gradient-12" x1="-0.156" y1="1.417" x2="-0.143" y2="1.417" xlink:href="#linear-gradient-11"/>
    <clipPath id="clip-path-20">
      <path id="Path_813" data-name="Path 813" d="M1.721,54.691l5.425,3.153L7.139,55.3,1.714,52.148Z" transform="translate(-1.714 -52.148)" fill="none"/>
    </clipPath>
    <linearGradient id="linear-gradient-13" x1="0.094" y1="1.019" x2="0.124" y2="1.019" gradientUnits="objectBoundingBox">
      <stop offset="0" stop-color="#93a2d4"/>
      <stop offset="1" stop-color="#d8e0f0"/>
    </linearGradient>
    <clipPath id="clip-path-21">
      <path id="Path_814" data-name="Path 814" d="M1.714,36.971l5.425,3.153L9.32,35.682,3.895,32.529Z" transform="translate(-1.714 -32.529)" fill="none"/>
    </clipPath>
    <linearGradient id="linear-gradient-14" x1="-0.051" y1="1.476" x2="-0.021" y2="1.476" gradientUnits="objectBoundingBox">
      <stop offset="0" stop-color="#93a2d4"/>
      <stop offset="0.122" stop-color="#a8b5dc"/>
      <stop offset="0.284" stop-color="#bdc8e5"/>
      <stop offset="0.465" stop-color="#ccd5eb"/>
      <stop offset="0.678" stop-color="#d5ddee"/>
      <stop offset="1" stop-color="#d8e0f0"/>
    </linearGradient>
    <clipPath id="clip-path-22">
      <path id="Path_815" data-name="Path 815" d="M11.346,29.244,16.772,32.4l1.665-.961-5.425-3.153Z" transform="translate(-11.346 -28.283)" fill="none"/>
    </clipPath>
    <linearGradient id="linear-gradient-15" x1="-0.36" y1="1.734" x2="-0.328" y2="1.734" gradientUnits="objectBoundingBox">
      <stop offset="0" stop-color="#d8e0f0"/>
      <stop offset="1" stop-color="#93a2d4"/>
    </linearGradient>
    <clipPath id="clip-path-23">
      <path id="Path_816" data-name="Path 816" d="M29.523,42.134l-1.665.961-2.181,4.442.007,2.543L29.7,47.762l-.016-5.536c0-.072-.037-.114-.089-.114a.143.143,0,0,0-.072.022" transform="translate(-25.677 -42.112)" fill="none"/>
    </clipPath>
    <linearGradient id="linear-gradient-16" x1="-0.548" y1="1.068" x2="-0.517" y2="1.068" gradientUnits="objectBoundingBox">
      <stop offset="0" stop-color="#93a2d4"/>
      <stop offset="0.127" stop-color="#aab7dd"/>
      <stop offset="0.276" stop-color="#bec9e5"/>
      <stop offset="0.445" stop-color="#cdd6eb"/>
      <stop offset="0.652" stop-color="#d5ddee"/>
      <stop offset="1" stop-color="#d8e0f0"/>
    </linearGradient>
  </defs>
  <g id="Group_10345" data-name="Group 10345" transform="translate(14.132 6.391)">
    <g id="Group_10344" data-name="Group 10344" clip-path="url(#clip-path)">
      <rect id="Rectangle_3618" data-name="Rectangle 3618" width="5.541" height="3.175" transform="translate(0 0)" fill="url(#linear-gradient)"/>
    </g>
  </g>
  <g id="Group_10347" data-name="Group 10347" transform="translate(0 0)">
    <g id="Group_10346" data-name="Group 10346" clip-path="url(#clip-path-2)">
      <path id="Path_787" data-name="Path 787" d="M60.247,36.748,54.822,33.6a.726.726,0,0,0-.327-.51l5.425,3.153a.726.726,0,0,1,.327.51" transform="translate(-42.157 -25.594)" fill="#5a7788"/>
    </g>
  </g>
  <g id="Group_10349" data-name="Group 10349" transform="translate(12.301 6.413)">
    <g id="Group_10348" data-name="Group 10348" clip-path="url(#clip-path-3)">
      <rect id="Rectangle_3620" data-name="Rectangle 3620" width="7.257" height="4.211" transform="translate(0 0)" fill="url(#linear-gradient-2)"/>
    </g>
  </g>
  <g id="Group_10351" data-name="Group 10351" transform="translate(0 0)">
    <g id="Group_10350" data-name="Group 10350" clip-path="url(#clip-path-2)">
      <path id="Path_789" data-name="Path 789" d="M56.138,36.045l-5.425-3.153a.875.875,0,0,1,.819-.1l.037.02,5.425,3.153-.037-.02a.874.874,0,0,0-.819.1" transform="translate(-39.231 -25.317)" fill="#23404d"/>
    </g>
  </g>
  <g id="Group_10353" data-name="Group 10353" transform="translate(17.726 9.544)">
    <g id="Group_10352" data-name="Group 10352" clip-path="url(#clip-path-5)">
      <rect id="Rectangle_3622" data-name="Rectangle 3622" width="2.549" height="2.549" transform="translate(-0.805 0.805) rotate(-45)" fill="url(#linear-gradient-3)"/>
    </g>
  </g>
  <g id="Group_10355" data-name="Group 10355" transform="translate(0 0)">
    <g id="Group_10354" data-name="Group 10354" clip-path="url(#clip-path-2)">
      <path id="Path_791" data-name="Path 791" d="M51.188,39.461l-5.425-3.153a.843.843,0,0,1-.351-.772,1.841,1.841,0,0,1,.024-.291,2.67,2.67,0,0,1,.36-.948,2.422,2.422,0,0,1,.817-.841l5.426,3.153a2.42,2.42,0,0,0-.817.841,2.67,2.67,0,0,0-.36.948,1.841,1.841,0,0,0-.024.291.843.843,0,0,0,.351.772" transform="translate(-35.13 -25.881)" fill="#3f405f"/>
      <path id="Path_792" data-name="Path 792" d="M22.654,58.456,17.229,55.3a.726.726,0,0,0-.327-.51l5.425,3.153a.726.726,0,0,1,.327.51" transform="translate(-13.075 -42.387)" fill="#5a7788"/>
    </g>
  </g>
  <g id="Group_10357" data-name="Group 10357" transform="translate(3.789 8.415)">
    <g id="Group_10356" data-name="Group 10356" clip-path="url(#clip-path-7)">
      <rect id="Rectangle_3624" data-name="Rectangle 3624" width="12.301" height="7.123" fill="url(#linear-gradient-4)"/>
    </g>
  </g>
  <g id="Group_10359" data-name="Group 10359" transform="translate(9.214 11.569)">
    <g id="Group_10358" data-name="Group 10358" clip-path="url(#clip-path-8)">
      <rect id="Rectangle_3625" data-name="Rectangle 3625" width="8.044" height="8.044" transform="translate(-2.25 2.25) rotate(-45)" fill="url(#linear-gradient-5)"/>
    </g>
  </g>
  <g id="Group_10361" data-name="Group 10361" transform="translate(0 0)">
    <g id="Group_10360" data-name="Group 10360" clip-path="url(#clip-path-2)">
      <path id="Path_795" data-name="Path 795" d="M18.539,57.752,13.114,54.6a.877.877,0,0,1,.82-.1l.038.02L19.4,57.668l-.038-.02a.877.877,0,0,0-.82.1" transform="translate(-10.145 -42.11)" fill="#23404d"/>
      <path id="Path_796" data-name="Path 796" d="M13.589,61.169,8.163,58.016a.843.843,0,0,1-.351-.772,1.842,1.842,0,0,1,.024-.291A2.67,2.67,0,0,1,8.2,56a2.422,2.422,0,0,1,.817-.841l5.426,3.153a2.42,2.42,0,0,0-.817.841,2.67,2.67,0,0,0-.36.948,1.84,1.84,0,0,0-.024.291.843.843,0,0,0,.351.772" transform="translate(-6.043 -42.674)" fill="#3f405f"/>
    </g>
  </g>
  <g id="Group_10363" data-name="Group 10363" transform="translate(0.001 15.128)">
    <g id="Group_10362" data-name="Group 10362" clip-path="url(#clip-path-10)">
      <rect id="Rectangle_3627" data-name="Rectangle 3627" width="5.472" height="3.256" fill="url(#linear-gradient-6)"/>
    </g>
  </g>
  <g id="Group_10365" data-name="Group 10365" transform="translate(0 14.759)">
    <g id="Group_10364" data-name="Group 10364" clip-path="url(#clip-path-11)">
      <rect id="Rectangle_3628" data-name="Rectangle 3628" width="5.427" height="3.522" fill="url(#linear-gradient-7)"/>
    </g>
  </g>
  <g id="Group_10367" data-name="Group 10367" transform="translate(0.16 13.33)">
    <g id="Group_10366" data-name="Group 10366" clip-path="url(#clip-path-12)">
      <rect id="Rectangle_3629" data-name="Rectangle 3629" width="7.417" height="4.303" transform="translate(0 0)" fill="url(#linear-gradient-8)"/>
    </g>
  </g>
  <g id="Group_10369" data-name="Group 10369" transform="translate(5.425 16.483)">
    <g id="Group_10368" data-name="Group 10368" clip-path="url(#clip-path-13)">
      <rect id="Rectangle_3630" data-name="Rectangle 3630" width="2.894" height="2.894" transform="translate(-0.971 0.97) rotate(-45)" fill="url(#linear-gradient-9)"/>
    </g>
  </g>
  <g id="Group_10371" data-name="Group 10371" transform="translate(0 14.481)">
    <g id="Group_10370" data-name="Group 10370" clip-path="url(#clip-path-14)">
      <rect id="Rectangle_3631" data-name="Rectangle 3631" width="5.585" height="3.431" transform="translate(0 0)" fill="url(#linear-gradient-10)"/>
    </g>
  </g>
  <g id="Group_10373" data-name="Group 10373" transform="translate(0 0)">
    <g id="Group_10372" data-name="Group 10372" clip-path="url(#clip-path-2)">
      <path id="Path_802" data-name="Path 802" d="M84.793,16.725l-.017,5.906a.225.225,0,0,1-.131.184l.017-5.906a.225.225,0,0,0,.131-.184" transform="translate(-65.481 -12.938)" fill="#ffbe09"/>
      <path id="Path_803" data-name="Path 803" d="M17.618,28.362l.017-5.906a.226.226,0,0,0,.133.186l-.017,5.906a.226.226,0,0,1-.133-.186" transform="translate(-13.629 -17.372)" fill="#fc9404"/>
    </g>
  </g>
  <g id="Group_10375" data-name="Group 10375" transform="translate(10.866 3.971)">
    <g id="Group_10374" data-name="Group 10374" clip-path="url(#clip-path-16)">
      <rect id="Rectangle_3633" data-name="Rectangle 3633" width="8.315" height="10.728" transform="translate(0 0)" fill="url(#linear-gradient-11)"/>
    </g>
  </g>
  <g id="Group_10377" data-name="Group 10377" transform="translate(0 0)">
    <g id="Group_10376" data-name="Group 10376" clip-path="url(#clip-path-2)">
      <path id="Path_805" data-name="Path 805" d="M24.326,26.8l-.017,5.906-6.1-3.524.017-5.906Z" transform="translate(-14.084 -18.008)" fill="#fc9404"/>
      <path id="Path_806" data-name="Path 806" d="M45.821,38.838,45.8,44.744a.705.705,0,0,1-.641,0l.017-5.906a.707.707,0,0,0,.641,0" transform="translate(-34.938 -30.045)" fill="#fc9404"/>
    </g>
  </g>
  <g id="Group_10379" data-name="Group 10379" transform="translate(4.006)">
    <g id="Group_10378" data-name="Group 10378" clip-path="url(#clip-path-18)">
      <rect id="Rectangle_3635" data-name="Rectangle 3635" width="17.781" height="15.402" transform="matrix(0.866, -0.5, 0.5, 0.866, -3.897, 2.224)" fill="url(#linear-gradient-12)"/>
    </g>
  </g>
  <g id="Group_10381" data-name="Group 10381" transform="translate(0 0)">
    <g id="Group_10380" data-name="Group 10380" clip-path="url(#clip-path-2)">
      <path id="Path_808" data-name="Path 808" d="M52.329,50.689l-1.768,1.021a.705.705,0,0,0-.32.554v.369c0,.2.146.285.322.183L52.332,51.8a.706.706,0,0,0,.32-.554v-.369c0-.2-.146-.285-.322-.183" transform="translate(-38.866 -39.179)" fill="#fffefb"/>
      <path id="Path_809" data-name="Path 809" d="M52.315,45.8l-1.768,1.021a.705.705,0,0,0-.32.554c0,.2.146.285.322.184l1.768-1.021a.7.7,0,0,0,.32-.554c0-.2-.146-.285-.322-.183" transform="translate(-38.855 -35.393)" fill="#fffefb"/>
      <path id="Path_810" data-name="Path 810" d="M76.91,36.928c-.133.077-.242.015-.242-.138l0-.922a.531.531,0,0,1,.241-.417l.8-.463c.133-.077.242-.015.242.138l0,.922a.532.532,0,0,1-.241.417Zm.8-2.124-.8.463a.886.886,0,0,0-.4.694l0,.922c0,.254.182.357.4.23l.8-.463a.886.886,0,0,0,.4-.694l0-.922c0-.254-.182-.358-.4-.23" transform="translate(-59.184 -26.882)" fill="#fffefb"/>
      <path id="Path_811" data-name="Path 811" d="M79.534,37.91l-.429.248V38.4c0,.115.07.171.161.145v.133l-.161.093V38.9l.161-.093.108-.062.16-.093v-.123l-.161.093v-.133a.477.477,0,0,0,.16-.33Z" transform="translate(-61.195 -29.327)" fill="#fffefb"/>
      <path id="Path_812" data-name="Path 812" d="M24.241,31.353h0L18.815,28.2h0a.113.113,0,0,0-.058-.009.133.133,0,0,0-.055.02l5.425,3.153a.268.268,0,0,1,.063-.021.086.086,0,0,1,.051.01" transform="translate(-14.467 -21.807)" fill="#93a2d4"/>
    </g>
  </g>
  <g id="Group_10383" data-name="Group 10383" transform="translate(0.388 11.807)">
    <g id="Group_10382" data-name="Group 10382" clip-path="url(#clip-path-20)">
      <rect id="Rectangle_3637" data-name="Rectangle 3637" width="7.649" height="7.553" transform="matrix(0.5, -0.866, 0.866, 0.5, -2.467, 4.272)" fill="url(#linear-gradient-13)"/>
    </g>
  </g>
  <g id="Group_10385" data-name="Group 10385" transform="translate(0.388 7.365)">
    <g id="Group_10384" data-name="Group 10384" clip-path="url(#clip-path-21)">
      <rect id="Rectangle_3638" data-name="Rectangle 3638" width="7.606" height="7.595" transform="translate(0 0)" fill="url(#linear-gradient-14)"/>
    </g>
  </g>
  <g id="Group_10387" data-name="Group 10387" transform="translate(2.569 6.403)">
    <g id="Group_10386" data-name="Group 10386" clip-path="url(#clip-path-22)">
      <rect id="Rectangle_3639" data-name="Rectangle 3639" width="7.109" height="8.198" transform="matrix(0.5, -0.866, 0.866, 0.5, -1.782, 3.086)" fill="url(#linear-gradient-15)"/>
    </g>
  </g>
  <g id="Group_10389" data-name="Group 10389" transform="translate(5.813 9.534)">
    <g id="Group_10388" data-name="Group 10388" clip-path="url(#clip-path-23)">
      <rect id="Rectangle_3640" data-name="Rectangle 3640" width="7.468" height="8.912" transform="translate(-3.45 1.992) rotate(-30)" fill="url(#linear-gradient-16)"/>
    </g>
  </g>
  <g id="Group_10391" data-name="Group 10391" transform="translate(0 0)">
    <g id="Group_10390" data-name="Group 10390" clip-path="url(#clip-path-2)">
      <path id="Path_817" data-name="Path 817" d="M42.5,11.277,35.759,7.383,33.685,8.588l6.746,3.895Z" transform="translate(-26.058 -5.711)" fill="#fffefb"/>
      <path id="Path_818" data-name="Path 818" d="M37.974,9.609l.319-.185,6.746,3.895-.319.185Z" transform="translate(-29.377 -7.29)" fill="#525472"/>
      <path id="Path_819" data-name="Path 819" d="M65.519,24.581,63.43,25.787l.007,2.4c0,.1.073.143.161.092l1.766-1.02a.354.354,0,0,0,.161-.278Z" transform="translate(-49.069 -19.016)" fill="#fffefb"/>
      <path id="Path_820" data-name="Path 820" d="M32.976,68.525a.877.877,0,0,1,.82-.1.709.709,0,0,1,.365.53,1.362,1.362,0,0,1,.025.263,2.648,2.648,0,0,1-1.2,2.08c-.665.384-1.206.076-1.208-.688a1.843,1.843,0,0,1,.023-.291,2.67,2.67,0,0,1,.36-.948,2.422,2.422,0,0,1,.817-.841" transform="translate(-24.582 -52.883)" fill="#3f405f"/>
      <path id="Path_821" data-name="Path 821" d="M70.575,46.817a.874.874,0,0,1,.819-.1.71.71,0,0,1,.364.53,1.364,1.364,0,0,1,.025.264,2.646,2.646,0,0,1-1.2,2.079c-.665.384-1.206.076-1.208-.689a1.844,1.844,0,0,1,.023-.291,2.67,2.67,0,0,1,.36-.948,2.423,2.423,0,0,1,.817-.841" transform="translate(-53.668 -36.09)" fill="#3f405f"/>
      <path id="Path_822" data-name="Path 822" d="M9.414,41.96l-4.34-2.522,1.745-3.553,4.34,2.522Z" transform="translate(-3.925 -27.759)" fill="#91a1d4"/>
      <path id="Path_823" data-name="Path 823" d="M30.531,45.649c.071-.041.129-.008.129.073l.012,2.529L27.46,50.107l-.006-.135L29.2,46.418Z" transform="translate(-21.238 -35.3)" fill="#91a1d4"/>
      <path id="Path_824" data-name="Path 824" d="M5.94,40.484l1,.581L8.958,37.67l-1-.581Z" transform="translate(-4.595 -28.692)" fill="#d8e0f0"/>
      <path id="Path_825" data-name="Path 825" d="M12.556,44.329l2.018-3.395-.5-.288-2.018,3.395Z" transform="translate(-9.33 -31.443)" fill="#d8e0f0"/>
      <path id="Path_826" data-name="Path 826" d="M27.453,50.4l.006.135.975-.563,1.909-3.787-1.145.661Z" transform="translate(-21.238 -35.729)" fill="#d8e0f0"/>
      <path id="Path_827" data-name="Path 827" d="M34.3,49.478l1.277-2.533,0-.688-1.768,3.507Z" transform="translate(-26.152 -35.784)" fill="#d8e0f0"/>
      <path id="Path_828" data-name="Path 828" d="M72.634,50.156a.437.437,0,0,1,.409-.052.355.355,0,0,1,.182.265.7.7,0,0,1,.012.132,1.323,1.323,0,0,1-.6,1.039c-.332.192-.6.038-.6-.344a.92.92,0,0,1,.012-.146,1.333,1.333,0,0,1,.18-.474,1.211,1.211,0,0,1,.408-.42" transform="translate(-55.725 -38.737)" fill="#fffefb"/>
      <path id="Path_829" data-name="Path 829" d="M35.036,71.864a.438.438,0,0,1,.41-.052.354.354,0,0,1,.182.265.7.7,0,0,1,.012.132,1.324,1.324,0,0,1-.6,1.04c-.332.192-.6.038-.6-.344a.949.949,0,0,1,.012-.146,1.337,1.337,0,0,1,.18-.474,1.211,1.211,0,0,1,.408-.42" transform="translate(-26.639 -55.529)" fill="#fffefb"/>
      <path id="Path_830" data-name="Path 830" d="M4.732,60.5l-.643-.371c-.088-.051-.161-.01-.161.092V60.4a.354.354,0,0,0,.16.277l.643.371c.088.051.161.01.161-.092v-.186a.354.354,0,0,0-.16-.277" transform="translate(-3.038 -46.496)" fill="#fffefb"/>
      <path id="Path_831" data-name="Path 831" d="M19.732,68.842l-.642-.371c-.088-.051-.161-.01-.161.092v.186a.354.354,0,0,0,.16.277l.642.37c.09.052.161.01.161-.092v-.186a.351.351,0,0,0-.16-.277" transform="translate(-14.643 -52.952)" fill="#fffefb"/>
      <path id="Path_832" data-name="Path 832" d="M9.791,63.174v-.156l1.495.863v.156Zm0-.312v-.156l1.495.863v.156l-1.495-.863m1.5.551-1.495-.863c-.075-.043-.136-.007-.136.078V63.1a.3.3,0,0,0,.135.235l1.495.863c.075.043.136.009.136-.078v-.468a.3.3,0,0,0-.135-.235" transform="translate(-7.469 -48.374)" fill="#fffefb"/>
    </g>
  </g>
</svg>
